<svg fill="none" height="24" viewBox="0 0 24 24" width="24" xmlns="http://www.w3.org/2000/svg"><path clip-rule="evenodd" d="m10.0002 5c-.27619 0-.50004.22386-.50004.5v3.5h-1.5c-.27615 0-.5.22386-.5.5v2.1429c0 .0211.00131.042.00386.0624-.87093-.0474-1.60116.0943-2.03224.2525-.19862.0729-.32986.2629-.32771.4745.00985.97.56086 3.1624 2.64775 4.6038.99101.6845 1.87673.8842 2.61698.7895.4318-.0552.7947-.2084 1.0817-.3998.0043.0049.0087.0099.0131.0148-.0023.0195-.0034.0393-.0034.0594v2c0 .2761.2238.5.5.5.2761 0 .5-.2239.5-.5v-1.3354c.1693.0761.3529.1404.5505.1885.9258.2254 2.0996.0827 3.4853-.7451 2.7647-1.6514 3.6435-4.3833 3.7361-5.5969.0161-.2109-.1023-.4092-.2957-.495-.5164-.2292-1.401-.4643-2.4772-.4853.0006-.0102.001-.0205.001-.0308v-3.5c0-.27614-.2239-.5-.5-.5h-2.5v-1.5c0-.27614-.2239-.5-.5-.5zm-.50004 7.1484c-.3517-.1421-.69974-.245-1.03704-.3164.02388-.0583.03704-.1222.03704-.1891v-1.6429h1zm1.21464.6557c-.0714-.0493-.143-.0966-.2146-.1419v-6.6622h3v6c0 .0079.0001.0159.0005.0237-.0745.0414-.149.0843-.2235.1288-.7446.4447-1.286.9294-1.6649 1.4257-.2396-.265-.5361-.5245-.8975-.7741zm-.5683.8229c.4417.3051.7393.607.9366.8863-.0456.1187-.0835.2371-.1141.3547-.1652.6333-.114 1.2181.0312 1.6801-.1726.1299-.4132.2466-.7183.2856-.44646.0571-1.08889-.0452-1.92177-.6204-1.51117-1.0438-2.05456-2.5543-2.18358-3.4183.85365-.1852 2.45876-.2118 3.96995.832zm1.8638 2.7743c.0234.0361.0418.0748.055.1148.0086.016.0172.0313.0259.0459.1652.2765.5628.6653 1.1961.8195.6197.1509 1.5259.0908 2.7359-.632 2.1608-1.2907 2.9934-3.3352 3.2019-4.4488-1.0794-.3444-3.2742-.5805-5.4351.7103-1.21.7227-1.6925 1.4921-1.8534 2.1093-.1368.5246-.0533.9827.0737 1.281zm4.4952-5.3281c-.0035-.0239-.0053-.0483-.0053-.0732v-3h-2v3.5559c.6907-.2664 1.3686-.4155 2.0053-.4827z" fill="#47495f" fill-rule="evenodd"/></svg>